<?xml version="1.0" encoding="UTF-8"?><svg id="Layer_2" xmlns="http://www.w3.org/2000/svg" viewBox="0 0 234.79 234.79"><defs><style>.cls-1{fill:#fff;}.cls-2{fill:#4f70b6;}.cls-3{fill:#99b1cf;}</style></defs><g id="Layer_1-2"><g><path class="cls-3" d="M117.4,0C52.56,0,0,52.56,0,117.4s52.56,117.4,117.4,117.4,117.4-52.56,117.4-117.4S182.23,0,117.4,0Z"/><path class="cls-1" d="M142.41,111.34h-6.58c-5.23,2.71-11.16,4.26-17.44,4.26s-12.21-1.54-17.44-4.26h-6.57c-16.13,0-29.24,13.12-29.24,29.24v37.91h106.52v-37.91c0-16.12-13.12-29.24-29.24-29.24Z"/><path class="cls-1" d="M149.14,77.6c0-16.95-13.79-30.74-30.74-30.74s-30.74,13.79-30.74,30.74,13.79,30.74,30.74,30.74,30.74-13.79,30.74-30.74Z"/><path class="cls-2" d="M142.41,111.34h-6.58c-5.23,2.71-11.16,4.26-17.44,4.26s-12.21-1.54-17.44-4.26h-6.57c-16.13,0-29.24,13.12-29.24,29.24v37.91h106.52v-37.91c0-16.12-13.12-29.24-29.24-29.24Z"/><path class="cls-2" d="M149.14,77.6c0-16.95-13.79-30.74-30.74-30.74s-30.74,13.79-30.74,30.74,13.79,30.74,30.74,30.74,30.74-13.79,30.74-30.74Z"/></g></g></svg>